<svg width="580" height="400" xmlns="http://www.w3.org/2000/svg">
 <!-- Created with Method Draw - http://github.com/duopixel/Method-Draw/ -->
 <g>
  <title>background</title>
  <rect fill="#fff" id="canvas_background" height="402" width="582" y="-1" x="-1"/>
  <g display="none" overflow="visible" y="0" x="0" height="100%" width="100%" id="canvasGrid">
   <rect fill="url(#gridpattern)" stroke-width="0" y="0" x="0" height="100%" width="100%"/>
  </g>
 </g>
 <g>
  <title>Layer 1</title>
  <path d="m4.5,194.4375c0,-2 0,-4 0,-10c0,-9 -0.045105,-33.003845 1,-45c0.958641,-11.003677 1.499032,-18.953323 2,-27c0.434962,-6.986473 -0.070129,-15.009079 1,-23c0.938565,-7.008499 2.498739,-13.946724 3,-21c0.354445,-4.987423 1,-9 1,-12c0,-1 0,-1 1,-1c0,0 1,0 2,0c1,0 3.836458,2.432953 7,8c4.22127,7.428383 6.916138,19.834106 11,45c1.291431,7.958153 3.853085,28.020538 7,50c2.86631,20.019592 5.13168,35.974258 8,51c2.096405,10.98204 3.48584,18.893997 5,27c1.480385,7.925186 3.640884,22.910645 5,35c1.902496,16.922791 2,23 2,26c0,1 -1,3 0,3c3,0 1.032303,-8.051331 3,-36c1.341743,-19.0578 5.578766,-93.045746 11,-141c4.639839,-41.04232 10.649605,-64.816509 16,-85c3.418633,-12.896236 5.569504,-23.133001 7,-27c0.775795,-2.097175 4,-4 3,-4c-2,0 0.223236,3.973675 2,20c3.431854,30.955166 6.625488,72.035652 11,116c3.684807,37.032715 7.19313,70.97963 11,108c4.213898,40.978577 9.569458,104.24292 14,126c2.275116,11.172455 2.292892,13.292908 3,14c0.707108,0.707092 1.569611,-4.043671 3,-16c3.847336,-32.158936 15.658432,-84.083038 27,-130c12.620605,-51.095215 20.634613,-91.876495 25,-116c4.684235,-25.885475 7,-34 5,-34c-3,0 0,9 0,15c0,22 0,50 0,115c0,39 0,76 0,90c0,4 0.946182,4.998566 1,4c2.002899,-37.161652 6.379227,-85.980972 9,-142c1.16925,-24.992661 -2.444153,-45.685089 1,-54c0.541199,-1.306564 1.130753,-1.030434 2,3c4.714127,21.858109 10.77858,44.076096 15,56c2.85141,8.054153 5,11 6,11c1,0 6.562195,-14.812088 14,-38c10.824615,-33.746521 15.175568,-56.965683 19,-77c2.096405,-10.982033 2.72525,-11.996567 3,-1c0.500153,20.018738 3.674103,43.044121 6,59c2.632263,18.057449 4.080994,27.10701 5,31c0.513733,2.176254 2.207855,2.091049 3,0c5.499634,-14.517365 10.277435,-42.960358 15,-77c3.187469,-22.97477 6.981628,-39.712002 8,-45c0.756439,-3.927826 0,3 0,25c0,34 0,120 0,162c0,34 0.118927,49.215393 2,55c0.691498,2.126465 2.332703,2.246887 3,1c9.624054,-17.982697 12.727692,-61.41095 33,-122c27.298676,-81.589111 40.393524,-114.877472 48,-140c4.21933,-13.935471 6,-20 5,-20c-8,0 0.2948,43.001888 0,66c-1.000092,78.019226 -2,144 -2,224c0,34 0,47 0,53c0,1 -0.096619,0.983093 1,-5c0.91925,-5.015472 3.702515,-23.937225 8,-76c4.782684,-57.940704 11.349426,-130.186218 16,-164c2.218018,-16.127007 4,-21 4,-23c0,-1 0,0 0,5c0,12 0,37 0,93c0,41 1.073303,75.274063 6,103c2.164032,12.178558 5.391235,17.188202 7,16c21.881775,-16.161316 22.090546,-85.982864 37,-165c9.054993,-47.989655 12.002594,-71.480957 18,-92c1.510803,-5.1689 1.875732,-5.996136 2,-4c0.500977,8.046677 4.497528,29.832947 7,86c2.581573,57.94252 0,102 0,140c0,17 0,23 0,24c0,0 0.891449,-0.00882 2,-13c5.46524,-64.047882 11.260132,-116.162964 18,-145c5.409729,-23.14595 10,-34 8,-34c-4,0 0,9 0,19c0,25 0,65 0,88c0,11 -0.919006,16.10701 0,20c0.513733,2.176254 1.292908,3.292892 2,4c0.707092,0.707108 3.403198,-10.017822 4,-20c1.502686,-25.134476 3.292847,-43.363113 9,-66c1.546143,-6.132645 3,-8 3,-3c0,26 0,63 0,104c0,18 -0.498291,32.937958 -1,39c-0.164978,1.993195 0,2 0,1c0,-2 1.14978,-7.973816 3,-19c2.176636,-12.971588 4.891174,-22.82605 7,-36c1.74585,-10.906509 1.21167,-19.03894 2,-27c0.502441,-5.074203 1,-9 1,-11l1,-1l0,0" id="svg_2" stroke-width="1.5" stroke="#000" fill="none"/>
 </g>
</svg>